<svg width="190" height="35" viewBox="0 0 190 35" fill="none" xmlns="http://www.w3.org/2000/svg">
<path d="M93.7275 4.88776C94.921 3.98391 96.3779 3.49641 97.875 3.50001C98.392 3.48842 98.9036 3.60742 99.3625 3.84602C99.8213 4.08461 100.213 4.43509 100.5 4.86501C100.787 4.43509 101.179 4.08461 101.638 3.84602C102.096 3.60742 102.608 3.48842 103.125 3.50001C104.622 3.49641 106.079 3.98391 107.273 4.88776C108.191 5.60176 108.9 6.59051 109.15 7.78576C109.724 7.82951 110.249 8.06751 110.69 8.42626C111.359 8.96876 111.845 9.78251 112.152 10.6435C112.631 11.9823 112.761 13.6885 112.264 15.141C112.39 15.2005 112.514 15.2705 112.635 15.351C113.116 15.6713 113.482 16.1298 113.751 16.6705C114.281 17.7293 114.5 19.2063 114.5 21C114.5 22.9968 113.739 24.3373 112.773 25.165C112.239 25.623 111.608 25.955 110.928 26.1363C110.753 27.1128 110.263 28.2433 109.495 29.2023C108.498 30.4535 106.951 31.5 104.875 31.5C103.23 31.5 101.921 30.59 101.071 29.6975C100.867 29.4844 100.677 29.2594 100.5 29.0238C100.323 29.2595 100.133 29.4844 99.9295 29.6975C99.079 30.59 97.7718 31.5 96.125 31.5C94.0495 31.5 92.5043 30.4535 91.505 29.2023C90.7871 28.3107 90.2954 27.2589 90.0718 26.1363C89.3918 25.955 88.7614 25.623 88.2273 25.165C87.2613 24.3373 86.5 22.995 86.5 21C86.5 19.2063 86.7205 17.7275 87.249 16.6705C87.4995 16.1402 87.8844 15.6847 88.3655 15.3493C88.4837 15.271 88.6077 15.202 88.7365 15.1428C88.2395 13.6868 88.369 11.9823 88.8485 10.6435C89.1548 9.78251 89.6413 8.96876 90.3098 8.42626C90.7508 8.06751 91.2758 7.83126 91.8498 7.78576C92.1018 6.59051 92.8105 5.60176 93.7293 4.88776H93.7275ZM99.625 7.87501V7.85751L99.6215 7.77001C99.5957 7.31379 99.505 6.86358 99.352 6.43301C99.2431 6.10797 99.0576 5.81387 98.8113 5.57551C98.5528 5.35042 98.2174 5.23382 97.875 5.25001C96.7672 5.24621 95.6883 5.60379 94.802 6.26851C93.99 6.90026 93.5 7.75601 93.5 8.75001C93.4999 8.88858 93.4669 9.02515 93.4037 9.14846C93.3405 9.27178 93.2489 9.37832 93.1364 9.45932C93.024 9.54031 92.8939 9.59344 92.7569 9.61434C92.62 9.63524 92.48 9.6233 92.3485 9.57951C92.0195 9.47101 91.7255 9.53226 91.4123 9.78426C91.0693 10.0643 90.735 10.5613 90.4953 11.2315C90.007 12.6 90.0578 14.2573 90.728 15.2653C90.8237 15.4088 90.8749 15.5775 90.875 15.75H92.1875C93.2318 15.75 94.2333 16.1649 94.9717 16.9033C95.7102 17.6417 96.125 18.6432 96.125 19.6875V20.2738C96.7088 20.4802 97.2009 20.8863 97.5142 21.4204C97.8275 21.9545 97.9419 22.5822 97.8372 23.1925C97.7325 23.8028 97.4154 24.3565 96.942 24.7556C96.4685 25.1547 95.8692 25.3736 95.25 25.3736C94.6308 25.3736 94.0315 25.1547 93.558 24.7556C93.0846 24.3565 92.7675 23.8028 92.6628 23.1925C92.5581 22.5822 92.6725 21.9545 92.9858 21.4204C93.2991 20.8863 93.7912 20.4802 94.375 20.2738V19.6875C94.375 18.48 93.395 17.5 92.1875 17.5H89.125C89.0204 17.4998 88.9167 17.4809 88.8188 17.444L88.8135 17.4545C88.467 18.1458 88.25 19.2938 88.25 21C88.25 22.5033 88.8013 23.3503 89.3665 23.835C89.9738 24.3565 90.6475 24.5 90.875 24.5C91.1071 24.5 91.3296 24.5922 91.4937 24.7563C91.6578 24.9204 91.75 25.1429 91.75 25.375C91.75 26.019 92.1 27.1443 92.87 28.1103C93.6208 29.0465 94.7005 29.75 96.125 29.75C97.105 29.75 97.9835 29.2023 98.6625 28.49C98.9968 28.14 99.2575 27.7778 99.4273 27.4803C99.5045 27.3483 99.5707 27.2102 99.625 27.0673V13.125H97.7263C97.5198 13.7088 97.1137 14.2009 96.5796 14.5142C96.0455 14.8275 95.4178 14.9419 94.8075 14.8372C94.1972 14.7325 93.6435 14.4154 93.2444 13.942C92.8453 13.4685 92.6264 12.8692 92.6264 12.25C92.6264 11.6308 92.8453 11.0315 93.2444 10.5581C93.6435 10.0846 94.1972 9.76753 94.8075 9.66281C95.4178 9.5581 96.0455 9.67252 96.5796 9.98583C97.1137 10.2992 97.5198 10.7912 97.7263 11.375H99.625V7.87501ZM101.375 25.3733V27.0655C101.429 27.2084 101.495 27.3466 101.573 27.4785C101.744 27.776 102.003 28.1383 102.336 28.4883C103.017 29.2005 103.897 29.7483 104.875 29.7483C106.3 29.7483 107.379 29.0448 108.13 28.1085C108.9 27.1425 109.25 26.0173 109.25 25.3733C109.25 25.1412 109.342 24.9186 109.506 24.7545C109.67 24.5904 109.893 24.4983 110.125 24.4983C110.353 24.4983 111.026 24.3548 111.634 23.8333C112.199 23.3485 112.75 22.5015 112.75 20.9983C112.75 19.292 112.531 18.1458 112.187 17.4528C112.071 17.1947 111.89 16.9714 111.662 16.8053C111.464 16.6793 111.234 16.6164 111 16.625C110.842 16.6249 110.686 16.5819 110.551 16.5006C110.415 16.4192 110.304 16.3025 110.229 16.163C110.154 16.0235 110.119 15.8663 110.126 15.7082C110.134 15.5501 110.184 15.397 110.272 15.2653C110.944 14.2573 110.993 12.6 110.505 11.2315C110.265 10.5613 109.931 10.0625 109.588 9.78426C109.275 9.53226 108.981 9.46926 108.652 9.57951C108.52 9.6233 108.38 9.63524 108.243 9.61434C108.106 9.59344 107.976 9.54031 107.864 9.45932C107.751 9.37832 107.66 9.27178 107.596 9.14846C107.533 9.02515 107.5 8.88858 107.5 8.75001C107.5 7.75601 107.01 6.90026 106.196 6.26851C105.31 5.60415 104.232 5.24659 103.125 5.25001C102.783 5.23382 102.447 5.35042 102.189 5.57551C101.942 5.81359 101.756 6.10773 101.646 6.43301C101.48 6.89012 101.388 7.37116 101.375 7.85751V23.625H102.688C103.895 23.625 104.875 22.645 104.875 21.4375V18.2263C104.291 18.0199 103.799 17.6137 103.486 17.0796C103.173 16.5455 103.058 15.9178 103.163 15.3075C103.268 14.6972 103.585 14.1435 104.058 13.7444C104.531 13.3453 105.131 13.1264 105.75 13.1264C106.369 13.1264 106.969 13.3453 107.442 13.7444C107.915 14.1435 108.232 14.6972 108.337 15.3075C108.442 15.9178 108.327 16.5455 108.014 17.0796C107.701 17.6137 107.209 18.0199 106.625 18.2263V21.4375C106.625 22.4818 106.21 23.4833 105.472 24.2217C104.733 24.9602 103.732 25.375 102.688 25.375H101.375V25.3733ZM94.375 12.25C94.375 12.4821 94.4672 12.7046 94.6313 12.8687C94.7954 13.0328 95.0179 13.125 95.25 13.125C95.4821 13.125 95.7046 13.0328 95.8687 12.8687C96.0328 12.7046 96.125 12.4821 96.125 12.25C96.125 12.0179 96.0328 11.7954 95.8687 11.6313C95.7046 11.4672 95.4821 11.375 95.25 11.375C95.0179 11.375 94.7954 11.4672 94.6313 11.6313C94.4672 11.7954 94.375 12.0179 94.375 12.25ZM105.75 16.625C105.982 16.625 106.205 16.5328 106.369 16.3687C106.533 16.2046 106.625 15.9821 106.625 15.75C106.625 15.5179 106.533 15.2954 106.369 15.1313C106.205 14.9672 105.982 14.875 105.75 14.875C105.518 14.875 105.295 14.9672 105.131 15.1313C104.967 15.2954 104.875 15.5179 104.875 15.75C104.875 15.9821 104.967 16.2046 105.131 16.3687C105.295 16.5328 105.518 16.625 105.75 16.625ZM95.25 21.875C95.0179 21.875 94.7954 21.9672 94.6313 22.1313C94.4672 22.2954 94.375 22.5179 94.375 22.75C94.375 22.9821 94.4672 23.2046 94.6313 23.3687C94.7954 23.5328 95.0179 23.625 95.25 23.625C95.4821 23.625 95.7046 23.5328 95.8687 23.3687C96.0328 23.2046 96.125 22.9821 96.125 22.75C96.125 22.5179 96.0328 22.2954 95.8687 22.1313C95.7046 21.9672 95.4821 21.875 95.25 21.875Z" fill="#0029FF"/>
<path d="M14.784 21.128C14.784 22.76 14.2 24.056 13.032 25.016C11.864 25.976 10.216 26.456 8.088 26.456C5.912 26.456 4.208 25.936 2.976 24.896C1.744 23.84 1.136 22.328 1.152 20.36H3.6C3.6 21.64 4.008 22.624 4.824 23.312C5.656 24 6.8 24.344 8.256 24.344C9.52 24.344 10.504 24.072 11.208 23.528C11.912 22.984 12.264 22.168 12.264 21.08C12.264 20.376 12.056 19.848 11.64 19.496C11.224 19.144 10.408 18.84 9.192 18.584L6.912 18.104C5.12 17.736 3.816 17.216 3 16.544C2.184 15.872 1.776 14.904 1.776 13.64C1.776 12.072 2.336 10.864 3.456 10.016C4.592 9.168 6.112 8.744 8.016 8.744C11.888 8.744 14.048 10.496 14.496 14H12.072C12.04 12.976 11.632 12.192 10.848 11.648C10.08 11.104 9.096 10.832 7.896 10.832C6.872 10.832 6.008 11.04 5.304 11.456C4.6 11.872 4.248 12.552 4.248 13.496C4.248 14.2 4.48 14.704 4.944 15.008C5.408 15.312 6.224 15.592 7.392 15.848L9.984 16.4C11.52 16.736 12.704 17.264 13.536 17.984C14.368 18.704 14.784 19.752 14.784 21.128ZM34.134 18.848C34.134 17.936 33.99 17.224 33.702 16.712C33.414 16.2 32.846 15.944 31.998 15.944C31.182 15.944 30.55 16.232 30.102 16.808C29.654 17.384 29.43 18.088 29.43 18.92V26H27.174V18.848C27.174 17.904 27.03 17.184 26.742 16.688C26.47 16.192 25.902 15.944 25.038 15.944C24.158 15.944 23.51 16.264 23.094 16.904C22.678 17.528 22.47 18.296 22.47 19.208V26H20.19V14.168H22.446V15.488C23.214 14.384 24.262 13.832 25.59 13.832C26.918 13.832 27.942 14.336 28.662 15.344C28.774 15.472 28.886 15.648 28.998 15.872C29.446 15.152 29.998 14.632 30.654 14.312C31.326 13.992 31.95 13.832 32.526 13.832C35.102 13.832 36.39 15.472 36.39 18.752V26H34.134V18.848ZM47.0837 13.808C48.7957 13.808 50.0437 14.16 50.8277 14.864C51.6117 15.552 52.0037 16.6 52.0037 18.008V26H49.6997V24.584C49.2677 25.096 48.6757 25.512 47.9237 25.832C47.1717 26.136 46.3717 26.288 45.5237 26.288C44.2917 26.288 43.3157 25.96 42.5957 25.304C41.8917 24.648 41.5397 23.768 41.5397 22.664C41.5397 22.12 41.6437 21.64 41.8517 21.224C42.0757 20.792 42.3237 20.456 42.5957 20.216C42.8677 19.976 43.2677 19.76 43.7957 19.568C44.3397 19.36 44.7877 19.216 45.1397 19.136C45.4917 19.056 46.0037 18.952 46.6757 18.824C48.2117 18.52 49.2197 18.256 49.6997 18.032V18.008C49.6997 17.128 49.4837 16.496 49.0517 16.112C48.6197 15.728 47.9557 15.536 47.0597 15.536C45.4117 15.536 44.5317 16.16 44.4197 17.408H42.0677C42.2437 15.008 43.9157 13.808 47.0837 13.808ZM46.1477 24.416C47.2357 24.416 48.0997 24.168 48.7397 23.672C49.3797 23.176 49.6997 22.544 49.6997 21.776V19.688C49.0917 19.992 48.1557 20.264 46.8917 20.504C46.4597 20.584 46.1397 20.648 45.9317 20.696C45.7397 20.744 45.4837 20.824 45.1637 20.936C44.8597 21.048 44.6357 21.176 44.4917 21.32C44.3477 21.448 44.2197 21.632 44.1077 21.872C43.9957 22.112 43.9397 22.392 43.9397 22.712C43.9397 23.848 44.6757 24.416 46.1477 24.416ZM64.2469 16.472C63.7989 16.408 63.4709 16.376 63.2629 16.376C62.1429 16.376 61.3109 16.808 60.7669 17.672C60.4469 18.216 60.2869 19.112 60.2869 20.36V26H58.0069V14.168H60.2869V15.824C60.9909 14.656 62.0389 14.072 63.4309 14.072C63.6869 14.072 63.9589 14.096 64.2469 14.144V16.472ZM72.6441 22.904C72.6441 23.784 73.1001 24.224 74.0121 24.224C74.3641 24.224 74.6761 24.176 74.9481 24.08V26.024C74.5961 26.136 74.1001 26.192 73.4601 26.192C72.4041 26.192 71.6361 25.936 71.1561 25.424C70.6281 24.88 70.3641 24.112 70.3641 23.12V16.136H68.4441V14.144H70.3641V10.592H72.6441V14.144H75.1881V16.136H72.6441V22.904Z" fill="black"/>
<path d="M138.293 14.36C137.269 12.04 135.509 10.88 133.013 10.88C131.189 10.88 129.693 11.512 128.525 12.776C127.357 14.04 126.773 15.632 126.773 17.552C126.773 19.488 127.365 21.104 128.549 22.4C129.733 23.68 131.245 24.32 133.085 24.32C134.285 24.32 135.341 24.024 136.253 23.432C137.165 22.84 137.861 21.984 138.341 20.864H140.885C140.277 22.64 139.277 24.024 137.885 25.016C136.493 25.992 134.869 26.48 133.013 26.48C130.501 26.48 128.429 25.64 126.797 23.96C125.165 22.28 124.349 20.176 124.349 17.648C124.349 15.104 125.165 12.984 126.797 11.288C128.445 9.592 130.533 8.744 133.061 8.744C134.917 8.744 136.541 9.24 137.933 10.232C139.325 11.208 140.317 12.584 140.909 14.36H138.293ZM155.09 24.68C156.114 23.544 156.626 22.016 156.626 20.096C156.626 18.176 156.114 16.656 155.09 15.536C154.066 14.4 152.642 13.832 150.818 13.832C148.994 13.832 147.57 14.4 146.546 15.536C145.522 16.656 145.01 18.176 145.01 20.096C145.01 22.016 145.522 23.544 146.546 24.68C147.57 25.8 148.994 26.36 150.818 26.36C152.642 26.36 154.066 25.8 155.09 24.68ZM150.818 15.944C153.058 15.944 154.178 17.328 154.178 20.096C154.178 22.864 153.058 24.248 150.818 24.248C148.578 24.248 147.458 22.864 147.458 20.096C147.458 17.328 148.578 15.944 150.818 15.944ZM170.275 24.8C169.299 25.824 168.075 26.336 166.603 26.336C164.939 26.336 163.595 25.768 162.571 24.632C161.563 23.496 161.059 21.976 161.059 20.072C161.059 18.184 161.563 16.672 162.571 15.536C163.595 14.4 164.939 13.832 166.603 13.832C168.091 13.832 169.315 14.352 170.275 15.392V9.224H172.555V26H170.275V24.8ZM170.323 20.048C170.323 18.832 170.011 17.84 169.387 17.072C168.779 16.288 167.875 15.896 166.675 15.896C165.795 15.896 165.035 16.248 164.395 16.952C163.771 17.656 163.459 18.696 163.459 20.072C163.459 21.384 163.763 22.416 164.371 23.168C164.979 23.904 165.819 24.272 166.891 24.272C167.979 24.272 168.819 23.904 169.411 23.168C170.019 22.416 170.323 21.376 170.323 20.048ZM180.165 20.576C180.197 21.632 180.509 22.512 181.101 23.216C181.693 23.92 182.509 24.272 183.549 24.272C184.925 24.272 185.869 23.712 186.381 22.592H188.781C187.837 25.088 186.077 26.336 183.501 26.336C181.741 26.336 180.333 25.768 179.277 24.632C178.237 23.48 177.717 21.96 177.717 20.072C177.717 18.072 178.277 16.536 179.397 15.464C180.533 14.376 181.909 13.832 183.525 13.832C185.237 13.832 186.557 14.432 187.485 15.632C188.429 16.816 188.901 18.376 188.901 20.312V20.576H180.165ZM186.405 18.848C186.341 17.92 186.045 17.2 185.517 16.688C184.989 16.16 184.301 15.896 183.453 15.896C182.589 15.896 181.869 16.168 181.293 16.712C180.717 17.24 180.365 17.952 180.237 18.848H186.405Z" fill="#0029FF"/>
</svg>
