<svg width="154" height="29" viewBox="0 0 154 29" fill="none" xmlns="http://www.w3.org/2000/svg">
<path d="M14.784 18.128C14.784 19.76 14.2 21.056 13.032 22.016C11.864 22.976 10.216 23.456 8.088 23.456C5.912 23.456 4.208 22.936 2.976 21.896C1.744 20.84 1.136 19.328 1.152 17.36H3.6C3.6 18.64 4.008 19.624 4.824 20.312C5.656 21 6.8 21.344 8.256 21.344C9.52 21.344 10.504 21.072 11.208 20.528C11.912 19.984 12.264 19.168 12.264 18.08C12.264 17.376 12.056 16.848 11.64 16.496C11.224 16.144 10.408 15.84 9.192 15.584L6.912 15.104C5.12 14.736 3.816 14.216 3 13.544C2.184 12.872 1.776 11.904 1.776 10.64C1.776 9.072 2.336 7.864 3.456 7.016C4.592 6.168 6.112 5.744 8.016 5.744C11.888 5.744 14.048 7.496 14.496 11H12.072C12.04 9.976 11.632 9.192 10.848 8.648C10.08 8.104 9.096 7.832 7.896 7.832C6.872 7.832 6.008 8.04 5.304 8.456C4.6 8.872 4.248 9.552 4.248 10.496C4.248 11.2 4.48 11.704 4.944 12.008C5.408 12.312 6.224 12.592 7.392 12.848L9.984 13.4C11.52 13.736 12.704 14.264 13.536 14.984C14.368 15.704 14.784 16.752 14.784 18.128ZM34.134 15.848C34.134 14.936 33.99 14.224 33.702 13.712C33.414 13.2 32.846 12.944 31.998 12.944C31.182 12.944 30.55 13.232 30.102 13.808C29.654 14.384 29.43 15.088 29.43 15.92V23H27.174V15.848C27.174 14.904 27.03 14.184 26.742 13.688C26.47 13.192 25.902 12.944 25.038 12.944C24.158 12.944 23.51 13.264 23.094 13.904C22.678 14.528 22.47 15.296 22.47 16.208V23H20.19V11.168H22.446V12.488C23.214 11.384 24.262 10.832 25.59 10.832C26.918 10.832 27.942 11.336 28.662 12.344C28.774 12.472 28.886 12.648 28.998 12.872C29.446 12.152 29.998 11.632 30.654 11.312C31.326 10.992 31.95 10.832 32.526 10.832C35.102 10.832 36.39 12.472 36.39 15.752V23H34.134V15.848ZM47.0837 10.808C48.7957 10.808 50.0437 11.16 50.8277 11.864C51.6117 12.552 52.0037 13.6 52.0037 15.008V23H49.6997V21.584C49.2677 22.096 48.6757 22.512 47.9237 22.832C47.1717 23.136 46.3717 23.288 45.5237 23.288C44.2917 23.288 43.3157 22.96 42.5957 22.304C41.8917 21.648 41.5397 20.768 41.5397 19.664C41.5397 19.12 41.6437 18.64 41.8517 18.224C42.0757 17.792 42.3237 17.456 42.5957 17.216C42.8677 16.976 43.2677 16.76 43.7957 16.568C44.3397 16.36 44.7877 16.216 45.1397 16.136C45.4917 16.056 46.0037 15.952 46.6757 15.824C48.2117 15.52 49.2197 15.256 49.6997 15.032V15.008C49.6997 14.128 49.4837 13.496 49.0517 13.112C48.6197 12.728 47.9557 12.536 47.0597 12.536C45.4117 12.536 44.5317 13.16 44.4197 14.408H42.0677C42.2437 12.008 43.9157 10.808 47.0837 10.808ZM46.1477 21.416C47.2357 21.416 48.0997 21.168 48.7397 20.672C49.3797 20.176 49.6997 19.544 49.6997 18.776V16.688C49.0917 16.992 48.1557 17.264 46.8917 17.504C46.4597 17.584 46.1397 17.648 45.9317 17.696C45.7397 17.744 45.4837 17.824 45.1637 17.936C44.8597 18.048 44.6357 18.176 44.4917 18.32C44.3477 18.448 44.2197 18.632 44.1077 18.872C43.9957 19.112 43.9397 19.392 43.9397 19.712C43.9397 20.848 44.6757 21.416 46.1477 21.416ZM64.2469 13.472C63.7989 13.408 63.4709 13.376 63.2629 13.376C62.1429 13.376 61.3109 13.808 60.7669 14.672C60.4469 15.216 60.2869 16.112 60.2869 17.36V23H58.0069V11.168H60.2869V12.824C60.9909 11.656 62.0389 11.072 63.4309 11.072C63.6869 11.072 63.9589 11.096 64.2469 11.144V13.472ZM72.6441 19.904C72.6441 20.784 73.1001 21.224 74.0121 21.224C74.3641 21.224 74.6761 21.176 74.9481 21.08V23.024C74.5961 23.136 74.1001 23.192 73.4601 23.192C72.4041 23.192 71.6361 22.936 71.1561 22.424C70.6281 21.88 70.3641 21.112 70.3641 20.12V13.136H68.4441V11.144H70.3641V7.592H72.6441V11.144H75.1881V13.136H72.6441V19.904Z" fill="black"/>
<path d="M102.316 11.36C101.292 9.04 99.5316 7.88 97.0356 7.88C95.2116 7.88 93.7156 8.512 92.5476 9.776C91.3796 11.04 90.7956 12.632 90.7956 14.552C90.7956 16.488 91.3876 18.104 92.5716 19.4C93.7556 20.68 95.2676 21.32 97.1076 21.32C98.3076 21.32 99.3636 21.024 100.276 20.432C101.188 19.84 101.884 18.984 102.364 17.864H104.908C104.3 19.64 103.3 21.024 101.908 22.016C100.516 22.992 98.8916 23.48 97.0356 23.48C94.5236 23.48 92.4516 22.64 90.8196 20.96C89.1876 19.28 88.3716 17.176 88.3716 14.648C88.3716 12.104 89.1876 9.984 90.8196 8.288C92.4676 6.592 94.5556 5.744 97.0836 5.744C98.9396 5.744 100.564 6.24 101.956 7.232C103.348 8.208 104.34 9.584 104.932 11.36H102.316ZM119.112 21.68C120.136 20.544 120.648 19.016 120.648 17.096C120.648 15.176 120.136 13.656 119.112 12.536C118.088 11.4 116.664 10.832 114.84 10.832C113.016 10.832 111.592 11.4 110.568 12.536C109.544 13.656 109.032 15.176 109.032 17.096C109.032 19.016 109.544 20.544 110.568 21.68C111.592 22.8 113.016 23.36 114.84 23.36C116.664 23.36 118.088 22.8 119.112 21.68ZM114.84 12.944C117.08 12.944 118.2 14.328 118.2 17.096C118.2 19.864 117.08 21.248 114.84 21.248C112.6 21.248 111.48 19.864 111.48 17.096C111.48 14.328 112.6 12.944 114.84 12.944ZM134.297 21.8C133.321 22.824 132.097 23.336 130.625 23.336C128.961 23.336 127.617 22.768 126.593 21.632C125.585 20.496 125.081 18.976 125.081 17.072C125.081 15.184 125.585 13.672 126.593 12.536C127.617 11.4 128.961 10.832 130.625 10.832C132.113 10.832 133.337 11.352 134.297 12.392V6.224H136.577V23H134.297V21.8ZM134.345 17.048C134.345 15.832 134.033 14.84 133.409 14.072C132.801 13.288 131.897 12.896 130.697 12.896C129.817 12.896 129.057 13.248 128.417 13.952C127.793 14.656 127.481 15.696 127.481 17.072C127.481 18.384 127.785 19.416 128.393 20.168C129.001 20.904 129.841 21.272 130.913 21.272C132.001 21.272 132.841 20.904 133.433 20.168C134.041 19.416 134.345 18.376 134.345 17.048ZM144.188 17.576C144.22 18.632 144.532 19.512 145.124 20.216C145.716 20.92 146.532 21.272 147.572 21.272C148.948 21.272 149.892 20.712 150.404 19.592H152.804C151.86 22.088 150.1 23.336 147.524 23.336C145.764 23.336 144.356 22.768 143.3 21.632C142.26 20.48 141.74 18.96 141.74 17.072C141.74 15.072 142.3 13.536 143.42 12.464C144.556 11.376 145.932 10.832 147.548 10.832C149.26 10.832 150.58 11.432 151.508 12.632C152.452 13.816 152.924 15.376 152.924 17.312V17.576H144.188ZM150.428 15.848C150.364 14.92 150.068 14.2 149.54 13.688C149.012 13.16 148.324 12.896 147.476 12.896C146.612 12.896 145.892 13.168 145.316 13.712C144.74 14.24 144.388 14.952 144.26 15.848H150.428Z" fill="#0029FF"/>
</svg>
