<svg width="82" height="35" viewBox="0 0 82 35" fill="none" xmlns="http://www.w3.org/2000/svg">
<path d="M33.7275 4.88775C34.921 3.9839 36.3779 3.49641 37.875 3.5C38.392 3.48841 38.9036 3.60741 39.3625 3.84601C39.8213 4.0846 40.2126 4.43508 40.5 4.865C40.7874 4.43508 41.1787 4.0846 41.6375 3.84601C42.0964 3.60741 42.608 3.48841 43.125 3.5C44.6221 3.49641 46.079 3.9839 47.2725 4.88775C48.1913 5.60175 48.9 6.5905 49.1503 7.78575C49.7243 7.8295 50.2493 8.0675 50.6903 8.42625C51.3588 8.96875 51.8453 9.7825 52.1515 10.6435C52.631 11.9823 52.7605 13.6885 52.2635 15.141C52.3895 15.2005 52.5138 15.2705 52.6345 15.351C53.1158 15.6713 53.4815 16.1298 53.751 16.6705C54.2813 17.7293 54.5 19.2063 54.5 21C54.5 22.9968 53.7388 24.3373 52.7728 25.165C52.2386 25.623 51.6082 25.955 50.9283 26.1363C50.7533 27.1128 50.2633 28.2433 49.495 29.2023C48.4975 30.4535 46.9505 31.5 44.875 31.5C43.23 31.5 41.921 30.59 41.0705 29.6975C40.8672 29.4844 40.6767 29.2594 40.5 29.0238C40.3234 29.2594 40.1329 29.4844 39.9295 29.6975C39.079 30.59 37.7718 31.5 36.125 31.5C34.0495 31.5 32.5043 30.4535 31.505 29.2023C30.7871 28.3107 30.2954 27.2588 30.0718 26.1363C29.3918 25.955 28.7614 25.623 28.2273 25.165C27.2613 24.3373 26.5 22.995 26.5 21C26.5 19.2063 26.7205 17.7275 27.249 16.6705C27.4995 16.1402 27.8844 15.6847 28.3655 15.3493C28.4837 15.271 28.6077 15.202 28.7365 15.1428C28.2395 13.6868 28.369 11.9823 28.8485 10.6435C29.1548 9.7825 29.6413 8.96875 30.3098 8.42625C30.7508 8.0675 31.2758 7.83125 31.8498 7.78575C32.1018 6.5905 32.8105 5.60175 33.7293 4.88775H33.7275ZM39.625 7.875V7.8575L39.6215 7.77C39.5957 7.31378 39.505 6.86358 39.352 6.433C39.2431 6.10796 39.0576 5.81386 38.8113 5.5755C38.5528 5.35042 38.2174 5.23381 37.875 5.25C36.7672 5.2462 35.6883 5.60378 34.802 6.2685C33.99 6.90025 33.5 7.756 33.5 8.75C33.4999 8.88857 33.4669 9.02514 33.4037 9.14845C33.3405 9.27177 33.2489 9.37831 33.1364 9.45931C33.024 9.5403 32.8939 9.59343 32.7569 9.61433C32.62 9.63523 32.48 9.62329 32.3485 9.5795C32.0195 9.471 31.7255 9.53225 31.4123 9.78425C31.0693 10.0643 30.735 10.5613 30.4953 11.2315C30.007 12.6 30.0578 14.2572 30.728 15.2653C30.8237 15.4088 30.8749 15.5775 30.875 15.75H32.1875C33.2318 15.75 34.2333 16.1648 34.9717 16.9033C35.7102 17.6417 36.125 18.6432 36.125 19.6875V20.2738C36.7088 20.4802 37.2009 20.8863 37.5142 21.4204C37.8275 21.9545 37.9419 22.5822 37.8372 23.1925C37.7325 23.8028 37.4154 24.3565 36.942 24.7556C36.4685 25.1547 35.8692 25.3736 35.25 25.3736C34.6308 25.3736 34.0315 25.1547 33.558 24.7556C33.0846 24.3565 32.7675 23.8028 32.6628 23.1925C32.5581 22.5822 32.6725 21.9545 32.9858 21.4204C33.2991 20.8863 33.7912 20.4802 34.375 20.2738V19.6875C34.375 18.48 33.395 17.5 32.1875 17.5H29.125C29.0204 17.4998 28.9167 17.4809 28.8188 17.444L28.8135 17.4545C28.467 18.1458 28.25 19.2938 28.25 21C28.25 22.5033 28.8013 23.3503 29.3665 23.835C29.9738 24.3565 30.6475 24.5 30.875 24.5C31.1071 24.5 31.3296 24.5922 31.4937 24.7563C31.6578 24.9204 31.75 25.1429 31.75 25.375C31.75 26.019 32.1 27.1443 32.87 28.1103C33.6208 29.0465 34.7005 29.75 36.125 29.75C37.105 29.75 37.9835 29.2023 38.6625 28.49C38.9968 28.14 39.2575 27.7778 39.4273 27.4803C39.5045 27.3483 39.5707 27.2102 39.625 27.0673V13.125H37.7263C37.5198 13.7088 37.1137 14.2009 36.5796 14.5142C36.0455 14.8275 35.4178 14.9419 34.8075 14.8372C34.1972 14.7325 33.6435 14.4154 33.2444 13.942C32.8453 13.4685 32.6264 12.8692 32.6264 12.25C32.6264 11.6308 32.8453 11.0315 33.2444 10.558C33.6435 10.0846 34.1972 9.76752 34.8075 9.6628C35.4178 9.55809 36.0455 9.67251 36.5796 9.98582C37.1137 10.2991 37.5198 10.7912 37.7263 11.375H39.625V7.875ZM41.375 25.3733V27.0655C41.4293 27.2084 41.4955 27.3466 41.5728 27.4785C41.7443 27.776 42.0033 28.1383 42.3358 28.4883C43.0165 29.2005 43.8968 29.7483 44.875 29.7483C46.2995 29.7483 47.3793 29.0448 48.13 28.1085C48.9 27.1425 49.25 26.0173 49.25 25.3733C49.25 25.1412 49.3422 24.9186 49.5063 24.7545C49.6704 24.5904 49.8929 24.4983 50.125 24.4983C50.3525 24.4983 51.0263 24.3548 51.6335 23.8333C52.1988 23.3485 52.75 22.5015 52.75 20.9983C52.75 19.292 52.5313 18.1458 52.1865 17.4528C52.0712 17.1947 51.8901 16.9714 51.6615 16.8053C51.4645 16.6793 51.2337 16.6164 51 16.625C50.8417 16.6249 50.6864 16.5819 50.5507 16.5006C50.4149 16.4192 50.3038 16.3025 50.2291 16.163C50.1544 16.0235 50.1189 15.8663 50.1265 15.7082C50.134 15.5501 50.1843 15.397 50.272 15.2653C50.944 14.2572 50.993 12.6 50.5048 11.2315C50.265 10.5613 49.9308 10.0625 49.5878 9.78425C49.2745 9.53225 48.9805 9.46925 48.6515 9.5795C48.52 9.62329 48.38 9.63523 48.2431 9.61433C48.1061 9.59343 47.976 9.5403 47.8636 9.45931C47.7511 9.37831 47.6595 9.27177 47.5963 9.14845C47.5331 9.02514 47.5001 8.88857 47.5 8.75C47.5 7.756 47.01 6.90025 46.1963 6.2685C45.3105 5.60414 44.2323 5.24658 43.125 5.25C42.7826 5.23381 42.4472 5.35042 42.1888 5.5755C41.9416 5.81358 41.7555 6.10772 41.6463 6.433C41.4796 6.89011 41.388 7.37115 41.375 7.8575V23.625H42.6875C43.895 23.625 44.875 22.645 44.875 21.4375V18.2263C44.2912 18.0198 43.7991 17.6137 43.4858 17.0796C43.1725 16.5455 43.0581 15.9178 43.1628 15.3075C43.2675 14.6972 43.5846 14.1435 44.0581 13.7444C44.5315 13.3453 45.1308 13.1264 45.75 13.1264C46.3692 13.1264 46.9685 13.3453 47.442 13.7444C47.9154 14.1435 48.2325 14.6972 48.3372 15.3075C48.4419 15.9178 48.3275 16.5455 48.0142 17.0796C47.7009 17.6137 47.2088 18.0198 46.625 18.2263V21.4375C46.625 22.4818 46.2102 23.4833 45.4717 24.2217C44.7333 24.9602 43.7318 25.375 42.6875 25.375H41.375V25.3733ZM34.375 12.25C34.375 12.4821 34.4672 12.7046 34.6313 12.8687C34.7954 13.0328 35.0179 13.125 35.25 13.125C35.4821 13.125 35.7046 13.0328 35.8687 12.8687C36.0328 12.7046 36.125 12.4821 36.125 12.25C36.125 12.0179 36.0328 11.7954 35.8687 11.6313C35.7046 11.4672 35.4821 11.375 35.25 11.375C35.0179 11.375 34.7954 11.4672 34.6313 11.6313C34.4672 11.7954 34.375 12.0179 34.375 12.25ZM45.75 16.625C45.9821 16.625 46.2046 16.5328 46.3687 16.3687C46.5328 16.2046 46.625 15.9821 46.625 15.75C46.625 15.5179 46.5328 15.2954 46.3687 15.1313C46.2046 14.9672 45.9821 14.875 45.75 14.875C45.5179 14.875 45.2954 14.9672 45.1313 15.1313C44.9672 15.2954 44.875 15.5179 44.875 15.75C44.875 15.9821 44.9672 16.2046 45.1313 16.3687C45.2954 16.5328 45.5179 16.625 45.75 16.625ZM35.25 21.875C35.0179 21.875 34.7954 21.9672 34.6313 22.1313C34.4672 22.2954 34.375 22.5179 34.375 22.75C34.375 22.9821 34.4672 23.2046 34.6313 23.3687C34.7954 23.5328 35.0179 23.625 35.25 23.625C35.4821 23.625 35.7046 23.5328 35.8687 23.3687C36.0328 23.2046 36.125 22.9821 36.125 22.75C36.125 22.5179 36.0328 22.2954 35.8687 22.1313C35.7046 21.9672 35.4821 21.875 35.25 21.875Z" fill="#0029FF"/>
<path d="M14.784 21.128C14.784 22.76 14.2 24.056 13.032 25.016C11.864 25.976 10.216 26.456 8.088 26.456C5.912 26.456 4.208 25.936 2.976 24.896C1.744 23.84 1.136 22.328 1.152 20.36H3.6C3.6 21.64 4.008 22.624 4.824 23.312C5.656 24 6.8 24.344 8.256 24.344C9.52 24.344 10.504 24.072 11.208 23.528C11.912 22.984 12.264 22.168 12.264 21.08C12.264 20.376 12.056 19.848 11.64 19.496C11.224 19.144 10.408 18.84 9.192 18.584L6.912 18.104C5.12 17.736 3.816 17.216 3 16.544C2.184 15.872 1.776 14.904 1.776 13.64C1.776 12.072 2.336 10.864 3.456 10.016C4.592 9.168 6.112 8.744 8.016 8.744C11.888 8.744 14.048 10.496 14.496 14H12.072C12.04 12.976 11.632 12.192 10.848 11.648C10.08 11.104 9.096 10.832 7.896 10.832C6.872 10.832 6.008 11.04 5.304 11.456C4.6 11.872 4.248 12.552 4.248 13.496C4.248 14.2 4.48 14.704 4.944 15.008C5.408 15.312 6.224 15.592 7.392 15.848L9.984 16.4C11.52 16.736 12.704 17.264 13.536 17.984C14.368 18.704 14.784 19.752 14.784 21.128Z" fill="black"/>
<path d="M78.3859 14.36C77.3619 12.04 75.6019 10.88 73.1059 10.88C71.2819 10.88 69.7859 11.512 68.6179 12.776C67.4499 14.04 66.8659 15.632 66.8659 17.552C66.8659 19.488 67.4579 21.104 68.6419 22.4C69.8259 23.68 71.3379 24.32 73.1779 24.32C74.3779 24.32 75.4339 24.024 76.3459 23.432C77.2579 22.84 77.9539 21.984 78.4339 20.864H80.9779C80.3699 22.64 79.3699 24.024 77.9779 25.016C76.5859 25.992 74.9619 26.48 73.1059 26.48C70.5939 26.48 68.5219 25.64 66.8899 23.96C65.2579 22.28 64.4419 20.176 64.4419 17.648C64.4419 15.104 65.2579 12.984 66.8899 11.288C68.5379 9.592 70.6259 8.744 73.1539 8.744C75.0099 8.744 76.6339 9.24 78.0259 10.232C79.4179 11.208 80.4099 12.584 81.0019 14.36H78.3859Z" fill="#0029FF"/>
</svg>
