<svg width="60" height="60" viewBox="0 0 60 60" fill="none" xmlns="http://www.w3.org/2000/svg">
<path d="M18.39 8.379C20.4359 6.82954 22.9336 5.99383 25.5 6C26.3863 5.98012 27.2634 6.18413 28.05 6.59315C28.8365 7.00217 29.5072 7.60299 30 8.34C30.4928 7.60299 31.1635 7.00217 31.95 6.59315C32.7366 6.18413 33.6137 5.98012 34.5 6C37.0664 5.99383 39.5641 6.82954 41.61 8.379C43.185 9.603 44.4 11.298 44.829 13.347C45.813 13.422 46.713 13.83 47.469 14.445C48.615 15.375 49.449 16.77 49.974 18.246C50.796 20.541 51.018 23.466 50.166 25.956C50.382 26.058 50.595 26.178 50.802 26.316C51.627 26.865 52.254 27.651 52.716 28.578C53.625 30.393 54 32.925 54 36C54 39.423 52.695 41.721 51.039 43.14C50.1233 43.9252 49.0426 44.4942 47.877 44.805C47.577 46.479 46.737 48.417 45.42 50.061C43.71 52.206 41.058 54 37.5 54C34.68 54 32.436 52.44 30.978 50.91C30.6294 50.5447 30.3029 50.159 30 49.755C29.6972 50.159 29.3706 50.5447 29.022 50.91C27.564 52.44 25.323 54 22.5 54C18.942 54 16.293 52.206 14.58 50.061C13.3493 48.5327 12.5063 46.7295 12.123 44.805C10.9574 44.4942 9.87675 43.9252 8.961 43.14C7.305 41.721 6 39.42 6 36C6 32.925 6.378 30.39 7.284 28.578C7.71339 27.6689 8.37326 26.888 9.198 26.313C9.40061 26.1789 9.61324 26.0605 9.834 25.959C8.982 23.463 9.204 20.541 10.026 18.246C10.551 16.77 11.385 15.375 12.531 14.445C13.287 13.83 14.187 13.425 15.171 13.347C15.603 11.298 16.818 9.603 18.393 8.379H18.39ZM28.5 13.5V13.47L28.494 13.32C28.4498 12.5379 28.2943 11.7661 28.032 11.028C27.8453 10.4708 27.5274 9.96662 27.105 9.558C26.6619 9.17214 26.0869 8.97224 25.5 9C23.6008 8.99349 21.7513 9.60647 20.232 10.746C18.84 11.829 18 13.296 18 15C17.9998 15.2375 17.9432 15.4717 17.8349 15.6831C17.7265 15.8945 17.5695 16.0771 17.3768 16.216C17.184 16.3548 16.961 16.4459 16.7262 16.4817C16.4914 16.5175 16.2514 16.4971 16.026 16.422C15.462 16.236 14.958 16.341 14.421 16.773C13.833 17.253 13.26 18.105 12.849 19.254C12.012 21.6 12.099 24.441 13.248 26.169C13.4121 26.4151 13.4998 26.7042 13.5 27H15.75C17.5402 27 19.2571 27.7112 20.523 28.977C21.7888 30.2429 22.5 31.9598 22.5 33.75V34.755C23.5008 35.1088 24.3443 35.8051 24.8814 36.7207C25.4186 37.6363 25.6147 38.7124 25.4352 39.7586C25.2557 40.8048 24.7121 41.7539 23.9005 42.4382C23.0889 43.1224 22.0615 43.4976 21 43.4976C19.9385 43.4976 18.9111 43.1224 18.0995 42.4382C17.2879 41.7539 16.7443 40.8048 16.5648 39.7586C16.3853 38.7124 16.5814 37.6363 17.1186 36.7207C17.6557 35.8051 18.4992 35.1088 19.5 34.755V33.75C19.5 31.68 17.82 30 15.75 30H10.5C10.3207 29.9997 10.1428 29.9672 9.975 29.904L9.966 29.922C9.372 31.107 9 33.075 9 36C9 38.577 9.945 40.029 10.914 40.86C11.955 41.754 13.11 42 13.5 42C13.8978 42 14.2794 42.158 14.5607 42.4393C14.842 42.7206 15 43.1022 15 43.5C15 44.604 15.6 46.533 16.92 48.189C18.207 49.794 20.058 51 22.5 51C24.18 51 25.686 50.061 26.85 48.84C27.423 48.24 27.87 47.619 28.161 47.109C28.2935 46.8828 28.4069 46.646 28.5 46.401V22.5H25.245C24.8912 23.5008 24.1949 24.3443 23.2793 24.8814C22.3637 25.4186 21.2876 25.6147 20.2414 25.4352C19.1952 25.2557 18.2461 24.7121 17.5618 23.9005C16.8776 23.0889 16.5024 22.0615 16.5024 21C16.5024 19.9385 16.8776 18.9111 17.5618 18.0995C18.2461 17.2879 19.1952 16.7443 20.2414 16.5648C21.2876 16.3853 22.3637 16.5814 23.2793 17.1186C24.1949 17.6557 24.8912 18.4992 25.245 19.5H28.5V13.5ZM31.5 43.497V46.398C31.5932 46.643 31.7066 46.8798 31.839 47.106C32.133 47.616 32.577 48.237 33.147 48.837C34.314 50.058 35.823 50.997 37.5 50.997C39.942 50.997 41.793 49.791 43.08 48.186C44.4 46.53 45 44.601 45 43.497C45 43.0992 45.158 42.7176 45.4393 42.4363C45.7206 42.155 46.1022 41.997 46.5 41.997C46.89 41.997 48.045 41.751 49.086 40.857C50.055 40.026 51 38.574 51 35.997C51 33.072 50.625 31.107 50.034 29.919C49.8363 29.4766 49.526 29.0939 49.134 28.809C48.7962 28.5931 48.4006 28.4853 48 28.5C47.7287 28.4999 47.4625 28.4261 47.2297 28.2867C46.997 28.1472 46.8064 27.9472 46.6784 27.708C46.5503 27.4688 46.4895 27.1993 46.5025 26.9283C46.5155 26.6573 46.6017 26.3949 46.752 26.169C47.904 24.441 47.988 21.6 47.151 19.254C46.74 18.105 46.167 17.25 45.579 16.773C45.042 16.341 44.538 16.233 43.974 16.422C43.7486 16.4971 43.5086 16.5175 43.2738 16.4817C43.039 16.4459 42.816 16.3548 42.6233 16.216C42.4305 16.0771 42.2735 15.8945 42.1651 15.6831C42.0568 15.4717 42.0002 15.2375 42 15C42 13.296 41.16 11.829 39.765 10.746C38.2465 9.60709 36.3981 8.99414 34.5 9C33.9131 8.97224 33.3381 9.17214 32.895 9.558C32.4714 9.96614 32.1524 10.4704 31.965 11.028C31.6794 11.8116 31.5224 12.6363 31.5 13.47V40.5H33.75C35.82 40.5 37.5 38.82 37.5 36.75V31.245C36.4992 30.8912 35.6557 30.1949 35.1186 29.2793C34.5814 28.3637 34.3853 27.2876 34.5648 26.2414C34.7443 25.1952 35.2879 24.2461 36.0995 23.5618C36.9111 22.8776 37.9385 22.5024 39 22.5024C40.0615 22.5024 41.0889 22.8776 41.9005 23.5618C42.7121 24.2461 43.2557 25.1952 43.4352 26.2414C43.6147 27.2876 43.4186 28.3637 42.8815 29.2793C42.3443 30.1949 41.5008 30.8912 40.5 31.245V36.75C40.5 38.5402 39.7888 40.2571 38.523 41.523C37.2571 42.7888 35.5402 43.5 33.75 43.5H31.5V43.497ZM19.5 21C19.5 21.3978 19.658 21.7794 19.9393 22.0607C20.2206 22.342 20.6022 22.5 21 22.5C21.3978 22.5 21.7794 22.342 22.0607 22.0607C22.342 21.7794 22.5 21.3978 22.5 21C22.5 20.6022 22.342 20.2206 22.0607 19.9393C21.7794 19.658 21.3978 19.5 21 19.5C20.6022 19.5 20.2206 19.658 19.9393 19.9393C19.658 20.2206 19.5 20.6022 19.5 21ZM39 28.5C39.3978 28.5 39.7794 28.342 40.0607 28.0607C40.342 27.7794 40.5 27.3978 40.5 27C40.5 26.6022 40.342 26.2206 40.0607 25.9393C39.7794 25.658 39.3978 25.5 39 25.5C38.6022 25.5 38.2206 25.658 37.9393 25.9393C37.658 26.2206 37.5 26.6022 37.5 27C37.5 27.3978 37.658 27.7794 37.9393 28.0607C38.2206 28.342 38.6022 28.5 39 28.5ZM21 37.5C20.6022 37.5 20.2206 37.658 19.9393 37.9393C19.658 38.2206 19.5 38.6022 19.5 39C19.5 39.3978 19.658 39.7794 19.9393 40.0607C20.2206 40.342 20.6022 40.5 21 40.5C21.3978 40.5 21.7794 40.342 22.0607 40.0607C22.342 39.7794 22.5 39.3978 22.5 39C22.5 38.6022 22.342 38.2206 22.0607 37.9393C21.7794 37.658 21.3978 37.5 21 37.5Z" fill="#0029FF"/>
</svg>
